<?xml version="1.0" encoding="UTF-8" standalone="no"?>
<svg
   xmlns:dc="http://purl.org/dc/elements/1.1/"
   xmlns:cc="http://creativecommons.org/ns#"
   xmlns:rdf="http://www.w3.org/1999/02/22-rdf-syntax-ns#"
   xmlns:svg="http://www.w3.org/2000/svg"
   xmlns="http://www.w3.org/2000/svg"
   id="svg8"
   version="1.1"
   viewBox="0 0 134 150"
   height="150mm"
   width="134mm">
  <defs
     id="defs2" />
  <metadata
     id="metadata5">
    <rdf:RDF>
      <cc:Work
         rdf:about="">
        <dc:format>image/svg+xml</dc:format>
        <dc:type
           rdf:resource="http://purl.org/dc/dcmitype/StillImage" />
        <dc:title></dc:title>
      </cc:Work>
    </rdf:RDF>
  </metadata>
  <g
     id="layer1">
    <path
       id="path849"
       d="m 66.685803,148.49089 c -0.630701,-0.14954 -1.194841,-0.5029 -1.792267,-0.75435 -0.597426,-0.25146 -1.217145,-0.45542 -1.792278,-0.75436 -0.563788,-0.29305 -1.075391,-0.67712 -1.613086,-1.01568 -0.537696,-0.33856 -1.163367,-0.56679 -1.613076,-1.01569 L 32.903318,118.0278 5.9315483,91.10478 4.680368,89.361404 3.4291889,87.618029 2.5573528,85.874653 1.6855157,84.131278 1.0434912,82.097343 0.40146665,80.063398 C 0.28471814,76.102339 -0.15769731,73.12708 0.58293363,69.4294 L 1.07192,66.988081 2.0082285,64.807417 2.944537,62.626743 4.0716054,60.884817 5.1986739,59.142891 31.665193,32.602096 58.131721,6.0612968 l 1.88044,-1.4418183 1.880441,-1.4418182 2.104482,-1.040093 c 6.337387,-2.70281956 16.173484,-2.68099854 21.68422,-0.2975313 l 1.64668,0.7538729 1.673366,1.0845894 1.673377,1.0845893 18.543823,18.4730274 18.54382,18.473026 1.54087,2.324499 1.54087,2.324504 0.76038,1.931243 0.76038,1.931243 0.47306,1.991347 0.47306,1.991357 0.002,3.632031 0.002,3.63203 -0.59617,2.469784 -0.59617,2.469784 -0.61828,1.440078 -0.61829,1.440066 -1.0444,1.756115 -1.04441,1.756114 -17.75047,17.798739 -17.750481,17.798735 8.204701,8.20849 8.2047,8.2085 v 0.60395 0.60395 l -9.22536,9.13821 c 0,0 -6.150238,6.09214 -9.225355,9.13821 -0.590354,0.58477 -1.386475,0.91629 -2.079718,1.37444 -0.693243,0.45814 -1.35902,0.96082 -2.079718,1.37442 -0.445294,0.25555 -0.938019,0.4177 -1.407033,0.62655 -4.673169,2.32391 -13.93834,2.34212 -19.003123,0.81736 z m 8.44524,-24.69782 h 0.147981 l 7.695848,-7.69997 7.695847,-7.69995 -8.061105,-8.06497 -8.061116,-8.064975 V 91.539663 90.81611 L 91.036965,74.325754 107.52542,57.835387 91.400971,41.708982 75.276532,25.582573 50.650541,50.207287 26.024551,74.831997 50.503804,99.312526 74.983051,123.79307 Z"
       style="fill:#000000;fill-opacity:1;stroke-width:0.290562" />
  </g>
</svg>
